<svg width="200" height="27" viewBox="0 0 200 27" fill="none" xmlns="http://www.w3.org/2000/svg">
<mask id="mask0_139_116" style="mask-type:luminance" maskUnits="userSpaceOnUse" x="42" y="-1" width="158" height="27">
<path d="M200 -0.000244141H42.8831V25.3632H200V-0.000244141Z" fill="white"/>
</mask>
<g mask="url(#mask0_139_116)">
<path d="M127.557 7.60196C125.64 7.60196 124.077 5.89739 124.077 3.79923C124.077 1.70106 125.638 -0.000244141 127.557 -0.000244141C129.475 -0.000244141 131.038 1.70431 131.038 3.80248C131.038 5.90064 129.475 7.60196 127.557 7.60196ZM127.557 0.406377C125.843 0.406377 124.45 1.92877 124.45 3.80248C124.45 5.67619 125.843 7.19859 127.557 7.19859C129.272 7.19859 130.666 5.67619 130.666 3.80248C130.666 1.92877 129.27 0.406377 127.557 0.406377Z" fill="white"/>
<path d="M142.565 21.0806L141.115 17.0306H136.337L134.902 21.0806H133.696L138.242 8.46228H139.278L143.801 21.0806H142.565ZM138.665 9.97816C138.549 10.5312 138.382 11.146 138.165 11.8064L136.754 15.866H140.749L139.356 11.8064C139.18 11.3086 138.999 10.6938 138.817 9.9749L138.665 9.97816Z" fill="white"/>
<path d="M151.374 21.0782V14.9854C151.374 14.1884 151.205 13.5834 150.869 13.1865C150.529 12.7864 149.999 12.5847 149.288 12.5847C148.353 12.5847 147.659 12.8678 147.219 13.424C146.784 13.977 146.561 14.8943 146.561 16.1532V21.0782H145.391V11.6999H146.325L146.54 13.0076H146.709L146.734 12.9686C146.996 12.5131 147.368 12.1553 147.841 11.9081C148.318 11.6576 148.856 11.5275 149.443 11.5275C150.469 11.5275 151.249 11.8008 151.765 12.3342C152.277 12.8709 152.538 13.746 152.538 14.9334V21.0782H151.374Z" fill="white"/>
<path d="M157.46 21.2402C156.618 21.2402 155.951 21.0027 155.475 20.531C155.001 20.0626 154.762 19.3827 154.762 18.5109C154.762 16.647 156.162 15.6548 158.922 15.5637L160.478 15.5084V14.8351C160.478 14.0674 160.323 13.4916 160.017 13.1207C159.707 12.7466 159.214 12.5579 158.543 12.5579C157.826 12.5579 157.01 12.7922 156.114 13.2606L155.763 12.3075C156.171 12.0733 156.621 11.8846 157.1 11.748C157.605 11.6049 158.118 11.5333 158.624 11.5333C159.642 11.5333 160.401 11.7805 160.886 12.2684C161.369 12.7564 161.616 13.5501 161.616 14.6366V21.0678H160.776L160.515 19.708H160.351L160.327 19.7405C159.901 20.3261 159.473 20.7262 159.052 20.9311C158.63 21.1361 158.094 21.2402 157.46 21.2402ZM159.044 16.4323C157.984 16.4713 157.204 16.6567 156.73 16.9788C156.242 17.3106 155.995 17.831 155.995 18.5272C155.995 19.0737 156.15 19.4966 156.457 19.7861C156.76 20.0724 157.186 20.2155 157.722 20.2155C158.561 20.2155 159.234 19.9585 159.716 19.451C160.202 18.9436 160.446 18.2247 160.446 17.3171V16.3672L159.044 16.4323Z" fill="white"/>
<path d="M165.666 7.69482H164.496V21.0808H165.666V7.69482Z" fill="white"/>
<path d="M168.468 25.3634C168.089 25.3634 167.714 25.3179 167.348 25.2333V24.2444C167.622 24.2997 167.926 24.3289 168.251 24.3289C169.191 24.3289 169.87 23.7467 170.269 22.6017L170.766 21.2126L167.274 11.6976H168.524L170.418 17.0878C170.835 18.3207 171.096 19.2218 171.195 19.7651L171.207 19.8334H171.395L171.409 19.7683C171.478 19.4756 171.624 18.9681 171.841 18.2556C172.058 17.5433 172.782 15.3377 173.987 11.6976H175.24L171.525 22.4553C171.159 23.5092 170.73 24.2672 170.245 24.7063C169.769 25.1422 169.168 25.3634 168.468 25.3634Z" fill="white"/>
<path d="M179.406 21.2543C177.75 21.2543 176.947 20.3272 176.947 18.421V12.6567H175.696V12.1004L176.934 11.5052L177.485 9.48828H178.116V11.7003H180.653V12.6567H178.116V18.3591C178.116 18.9512 178.25 19.4163 178.51 19.7384C178.774 20.0638 179.137 20.2296 179.596 20.2296C179.831 20.2296 180.063 20.2101 180.286 20.1711C180.453 20.1418 180.599 20.1092 180.715 20.08V21.0233C180.578 21.0851 180.388 21.1372 180.147 21.1828C179.873 21.2315 179.626 21.2543 179.406 21.2543Z" fill="white"/>
<path d="M182.614 21.0701V11.6918H183.784V21.0701H182.614ZM183.207 9.90262C183.001 9.90262 182.837 9.83106 182.704 9.68793C182.57 9.54481 182.504 9.32034 182.504 9.02104C182.504 8.71523 182.57 8.49081 182.704 8.35419C182.837 8.21431 183.004 8.146 183.21 8.146C183.404 8.146 183.567 8.21431 183.707 8.35744C183.844 8.49732 183.913 8.71849 183.913 9.01778C183.913 9.31707 183.844 9.54154 183.704 9.68467C183.564 9.83106 183.4 9.90262 183.207 9.90262Z" fill="white"/>
<path d="M190.158 21.2571C188.923 21.2571 187.952 20.8375 187.279 20.008C186.601 19.1785 186.258 17.9814 186.258 16.4525C186.258 14.8846 186.606 13.6582 187.294 12.8059C187.979 11.9568 188.973 11.5275 190.245 11.5275C190.658 11.5275 191.075 11.5763 191.488 11.6739C191.867 11.7617 192.171 11.8658 192.397 11.9829L192.039 13.0596C191.766 12.9458 191.465 12.8482 191.146 12.7701C190.798 12.6855 190.483 12.6433 190.212 12.6433C188.393 12.6433 187.473 13.9216 187.473 16.4395C187.473 17.6268 187.696 18.5506 188.136 19.1915C188.583 19.8389 189.253 20.1674 190.122 20.1674C190.825 20.1674 191.551 20.008 192.287 19.6925V20.7952C191.727 21.101 191.009 21.2571 190.158 21.2571Z" fill="white"/>
<path d="M196.618 21.2539C195.502 21.2539 194.618 21.0619 193.984 20.6878V19.533C194.373 19.738 194.796 19.9039 195.24 20.0275C195.725 20.1609 196.198 20.2292 196.651 20.2292C197.353 20.2292 197.901 20.1024 198.285 19.8551C198.681 19.5981 198.881 19.2045 198.881 18.6808C198.881 18.284 198.723 17.9424 198.41 17.6626C198.107 17.3893 197.535 17.0803 196.663 16.7128C195.859 16.3842 195.281 16.0979 194.945 15.8539C194.614 15.6165 194.364 15.3432 194.204 15.0407C194.043 14.7414 193.963 14.3771 193.963 13.9607C193.963 13.206 194.236 12.6237 194.799 12.1878C195.362 11.7519 196.148 11.5275 197.139 11.5275C198.041 11.5275 198.934 11.7259 199.795 12.1163L199.387 13.1377C198.533 12.7603 197.744 12.5717 197.044 12.5717C196.407 12.5717 195.915 12.6855 195.586 12.9067C195.243 13.1377 195.07 13.4597 195.07 13.8664C195.07 14.1396 195.135 14.3771 195.264 14.569C195.389 14.7577 195.594 14.9399 195.865 15.1058C196.133 15.2684 196.651 15.5091 197.407 15.8181C198.428 16.2248 199.125 16.6379 199.479 17.0413C199.827 17.4414 200.003 17.9521 200.003 18.5604C200.003 19.4159 199.708 20.0861 199.125 20.548C198.533 21.0164 197.69 21.2539 196.618 21.2539Z" fill="white"/>
<path d="M52.2634 22.1L44.2942 10.1519V22.1H42.8831V7.5072H44.19L52.189 19.5009V7.5072H53.6V22.1H52.2634Z" fill="white"/>
<path d="M59.0302 22.3551C58.1817 22.3551 57.4464 22.0948 56.8481 21.5841C56.2557 21.0766 55.955 20.3284 55.955 19.3623C55.955 18.2043 56.342 17.352 57.1041 16.8315C57.8781 16.3013 58.8278 16.0312 59.9262 16.0312C60.739 16.0312 61.5666 16.1386 62.3882 16.3468L62.4834 16.3696V15.9044C62.4834 15.1107 62.2482 14.4698 61.7868 13.9981C61.3254 13.5297 60.6735 13.289 59.8518 13.289C58.7533 13.289 57.6846 13.5297 56.6665 14.0047V12.5473C57.8037 12.1147 58.926 11.8967 60.0007 11.8967C61.1914 11.8967 62.1381 12.2611 62.8079 12.9799C63.4777 13.6989 63.8201 14.7529 63.8201 16.1126V20.0779C63.8201 20.644 64.085 20.9432 64.5881 20.9432C64.7697 20.9432 64.9751 20.9042 65.2013 20.8262V22.02C64.8531 22.1566 64.5047 22.2249 64.1595 22.2249C63.3319 22.2249 62.8198 21.8444 62.5906 21.0603L62.5549 20.9368L62.4656 21.0213C61.5278 21.9094 60.3728 22.3551 59.0302 22.3551ZM60.1287 17.2739C59.3606 17.2739 58.6998 17.43 58.1639 17.7359C57.6102 18.0514 57.3304 18.5686 57.3304 19.2745C57.3304 19.8633 57.5328 20.3155 57.9317 20.6212C58.3217 20.9172 58.798 21.0669 59.3457 21.0669C60.5931 21.0669 61.6409 20.5627 62.4626 19.564L62.4834 19.5412V17.5862L62.4209 17.5732C61.5754 17.3747 60.8045 17.2739 60.1287 17.2739Z" fill="white"/>
<path d="M79.3035 22.1045V15.9044C79.3035 15.114 79.1099 14.4731 78.7229 14.0014C78.336 13.5297 77.8031 13.289 77.1363 13.289C76.1598 13.289 75.2607 13.8615 74.4629 14.987L74.4421 15.0163L74.445 15.0521C74.4808 15.3416 74.5017 15.6442 74.5017 15.9467V22.1045H73.165V15.9044C73.165 15.114 72.9715 14.4731 72.5874 14.0014C72.2005 13.5297 71.6676 13.289 71.0008 13.289C69.9856 13.289 69.0419 13.9169 68.1965 15.1562L68.1816 15.179V22.1013H66.845V12.1505H68.0327V13.6338L68.1667 13.4712C69.03 12.4269 70.0392 11.8967 71.1675 11.8967C72.4624 11.8967 73.4032 12.4563 73.9718 13.5622L74.0223 13.6631L74.0938 13.5785C75.0553 12.4627 76.136 11.8967 77.3 11.8967C78.3538 11.8967 79.1814 12.2741 79.7589 13.0157C80.3393 13.764 80.6345 14.7496 80.6345 15.9434V22.1013H79.3035V22.1045Z" fill="white"/>
<path d="M85.7719 22.3551C84.9234 22.3551 84.1879 22.0948 83.5894 21.5841C82.9974 21.0766 82.6966 20.3284 82.6966 19.3623C82.6966 18.2043 83.0837 17.352 83.8459 16.8315C84.6194 16.3013 85.5694 16.0312 86.6679 16.0312C87.4801 16.0312 88.3084 16.1386 89.1295 16.3468L89.2246 16.3696V15.9044C89.2246 15.1107 88.9899 14.4698 88.5286 13.9981C88.0673 13.5297 87.4148 13.289 86.5929 13.289C85.4944 13.289 84.4258 13.5297 83.408 14.0047V12.5473C84.5452 12.1147 85.6678 11.8967 86.7421 11.8967C87.9326 11.8967 88.8794 12.2611 89.5497 12.9799C90.2191 13.6989 90.5618 14.7529 90.5618 16.1126V20.0779C90.5618 20.644 90.8264 20.9432 91.3297 20.9432C91.5111 20.9432 91.7168 20.9042 91.9426 20.8262V22.02C91.5942 22.1566 91.2466 22.2249 90.9006 22.2249C90.0731 22.2249 89.5609 21.8444 89.3319 21.0603L89.2964 20.9368L89.2069 21.0213C88.2697 21.9094 87.1115 22.3551 85.7719 22.3551ZM86.8704 17.2739C86.1018 17.2739 85.4412 17.43 84.9057 17.7359C84.3516 18.0514 84.0717 18.5686 84.0717 19.2745C84.0717 19.8633 84.2742 20.3155 84.6734 20.6212C85.0629 20.9172 85.5396 21.0669 86.0872 21.0669C87.3349 21.0669 88.3826 20.5627 89.2045 19.564L89.2246 19.5412V17.5862L89.1625 17.5732C88.3173 17.3747 87.5462 17.2739 86.8704 17.2739Z" fill="white"/>
<path d="M97.593 22.3548C95.9767 22.3548 94.4967 21.9416 93.1958 21.1252V19.554C94.479 20.4063 95.9202 20.8357 97.4825 20.8357C99.7601 20.8357 100.915 20.068 100.915 18.5585C100.915 18.0088 100.767 17.5274 100.468 17.1273C100.177 16.7304 99.7843 16.4279 99.302 16.2197L96.1404 14.8632C95.6041 14.6322 95.104 14.3655 94.6484 14.0695C94.2023 13.7767 93.833 13.3701 93.5563 12.8659C93.2797 12.3617 93.1393 11.7598 93.1393 11.0767C93.1393 9.86007 93.562 8.91354 94.3927 8.2564C95.2323 7.59604 96.2921 7.26099 97.5365 7.26099C99.0278 7.26099 100.332 7.60906 101.413 8.29869V9.86659C100.373 9.14445 99.1585 8.77685 97.7986 8.77685C97.7478 8.77685 97.697 8.77685 97.6462 8.77685C95.6041 8.77685 94.5685 9.52508 94.5685 11.0019C94.5685 11.5972 94.7709 12.1112 95.1726 12.5308C95.5654 12.9407 96.0541 13.2725 96.6252 13.5165C96.6252 13.5165 99.7746 14.8501 100.362 15.0974C100.933 15.3381 101.409 15.7545 101.781 16.3336C102.154 16.9126 102.341 17.6184 102.341 18.435C102.341 19.1213 102.21 19.7296 101.948 20.2501C101.689 20.7674 101.332 21.1837 100.885 21.483C100.433 21.7855 99.9271 22.0099 99.3794 22.1466C98.831 22.2865 98.2301 22.3548 97.593 22.3548Z" fill="white"/>
<path d="M108.077 22.1V16.5732L103.007 7.5072H104.562L108.783 15.1777L113.001 7.5072H114.555L109.489 16.5732V22.1H108.077Z" fill="white"/>
<path d="M119.914 22.3548C118.297 22.3548 116.817 21.9416 115.516 21.1252V19.554C116.8 20.4063 118.24 20.8357 119.803 20.8357C122.081 20.8357 123.236 20.068 123.236 18.5585C123.236 18.0088 123.086 17.5274 122.789 17.1273C122.498 16.7304 122.104 16.4279 121.622 16.2197L118.461 14.8632C117.925 14.6322 117.425 14.3655 116.969 14.0695C116.523 13.7767 116.154 13.3701 115.877 12.8659C115.599 12.3617 115.46 11.7598 115.46 11.0767C115.46 9.86007 115.883 8.91354 116.713 8.2564C117.553 7.59604 118.613 7.26099 119.857 7.26099C121.348 7.26099 122.653 7.60906 123.733 8.29869V9.86659C122.694 9.14445 121.479 8.77685 120.118 8.77685C120.068 8.77685 120.018 8.77685 119.967 8.77685C117.925 8.77685 116.889 9.52508 116.889 11.0019C116.889 11.5972 117.092 12.1112 117.493 12.5308C117.886 12.9407 118.374 13.2725 118.946 13.5165L122.682 15.0974C123.253 15.3381 123.73 15.7545 124.102 16.3336C124.474 16.9126 124.662 17.6184 124.662 18.435C124.662 19.1213 124.531 19.7296 124.269 20.2501C124.01 20.7674 123.653 21.1837 123.206 21.483C122.753 21.7855 122.248 22.0099 121.699 22.1466C121.155 22.2865 120.551 22.3548 119.914 22.3548Z" fill="white"/>
<path d="M126.18 1.89199C126.445 1.84645 126.841 1.81067 127.279 1.81067C127.821 1.81067 128.198 1.89849 128.458 2.12295C128.675 2.31162 128.794 2.59138 128.794 2.95571C128.794 3.46317 128.464 3.8145 128.151 3.93811V3.95762C128.404 4.07148 128.547 4.33498 128.639 4.70256C128.752 5.15147 128.865 5.67194 128.937 5.82483H128.092C128.032 5.71098 127.946 5.38568 127.839 4.89448C127.74 4.39678 127.585 4.26015 127.249 4.2569H126.999V5.82483H126.184V1.89199H126.18ZM126.996 3.60631H127.321C127.731 3.60631 127.976 3.38185 127.976 3.03378C127.976 2.66619 127.749 2.48404 127.368 2.47752C127.168 2.47752 127.055 2.49379 126.996 2.5068V3.60631Z" fill="white"/>
</g>
<mask id="mask1_139_116" style="mask-type:luminance" maskUnits="userSpaceOnUse" x="0" y="4" width="37" height="23">
<path d="M36.2937 4.41296H0V26.4458H36.2937V4.41296Z" fill="white"/>
</mask>
<g mask="url(#mask1_139_116)">
<path d="M36.2937 4.44041L31.8752 9.91029H0V9.73755C0 6.79593 2.20106 4.41135 4.9159 4.41296L36.2937 4.44041Z" fill="#102166"/>
<path d="M31.8759 9.91602L27.4172 15.4392H3.35295V15.2406C3.35295 12.3006 5.55253 9.91602 8.26436 9.91602H31.8759Z" fill="#1A76FF"/>
<path d="M27.4171 15.4368L22.951 20.968H6.84364V20.7614C6.84364 17.8214 9.04324 15.4368 11.7551 15.4368H27.4171Z" fill="#16ABFF"/>
<path d="M22.9494 20.9631L18.5204 26.4459H10.8167V26.2877C10.8167 23.3477 13.0163 20.9631 15.7281 20.9631H22.9494Z" fill="#A2DDFB"/>
</g>
</svg>
